<svg width="400" height="59" viewBox="0 0 400 59" fill="none" xmlns="http://www.w3.org/2000/svg">
<path d="M0 0V2.93258C0.84686 4.39887 1.55258 5.86516 1.97601 7.12197C4.79887 15.0818 5.08116 20.947 4.51658 29.7447C4.09315 36.6572 1.12915 49.4349 4.51658 55.5095C6.91602 59.6989 9.73889 58.4421 11.0092 53.6243C12.9852 45.6644 10.0212 36.4477 10.1623 28.4879C10.3035 20.7375 14.6789 16.9671 19.9012 18.2239C25.5469 19.4807 26.6761 26.6027 26.8172 33.7246C26.9584 37.4951 25.2646 48.3875 26.8172 51.5296C27.6641 53.2053 29.0755 54.0432 30.2047 52.5769C32.1807 50.2728 30.3458 41.2656 30.3458 38.1235C30.4869 30.3731 30.7692 20.1091 36.1327 16.1292C43.1898 10.8924 44.8836 19.4807 43.7544 27.8595C43.1898 31.4205 42.343 47.1307 47.8476 41.0561C49.9647 38.7519 48.8356 33.7246 48.5533 30.7921C47.9887 25.7648 47.9887 21.7849 49.9647 17.1765C51.235 14.2439 53.3522 10.683 55.8927 10.8924C59.2802 11.1019 59.7036 15.5008 61.5385 18.6428C63.6556 22.4133 64.079 23.2511 65.7728 18.8523C67.3253 14.8724 67.4665 12.9871 70.8539 11.9398C72.6888 11.3114 77.6288 9.0072 79.1814 10.8924C81.2985 13.1966 80.0282 16.7576 79.7459 19.8996C79.4637 22.2038 78.8991 28.2784 82.2865 27.0216C84.686 26.1837 81.8631 18.4333 83.1334 15.2913C84.9682 10.683 91.3197 12.3587 93.0134 16.3386C94.8483 20.7375 93.7191 28.4879 93.1546 33.3057C92.59 38.1235 91.4608 43.7792 92.3077 48.8065C94.1426 59.4894 98.518 50.6917 98.3768 43.7792C98.2357 34.5625 95.554 25.3458 97.6711 16.5481C98.9414 11.5208 104.164 2.72311 108.539 7.12197C112.35 10.8924 109.245 23.4606 108.821 28.6974C108.539 32.2584 107.692 38.333 109.104 41.6845C110.374 44.6171 111.927 44.8265 112.773 41.0561C113.479 37.914 111.503 31.6299 111.362 28.2784C111.08 24.7174 110.797 20.528 111.644 16.9671C114.185 5.23675 116.584 21.9943 120.536 18.2239C122.512 16.3386 126.606 -1.46629 129.146 11.7303C129.993 16.3386 127.311 28.069 130.134 30.3731C136.062 35.1909 132.251 15.5008 133.239 13.6155C137.615 5.23675 139.873 21.5754 141.849 22.2038C146.224 23.6701 145.801 5.65568 153.282 12.7777C155.681 15.0818 157.375 19.6902 157.798 23.6701C158.363 28.2784 156.387 33.0962 156.951 37.4951C158.363 46.5023 163.162 40.6371 163.162 33.9341C163.162 28.2784 158.927 16.5481 165.138 14.8724C171.348 12.9871 175.441 22.2038 176.147 29.3258C176.57 33.5152 174.03 52.158 177.982 52.9959C183.769 54.2527 173.465 20.1091 184.757 19.8996C191.39 19.6902 188.709 28.4879 190.261 33.7246C191.673 38.7519 193.225 35.8193 193.507 32.0489C193.931 28.069 192.237 25.3458 195.342 23.0417C203.67 16.9671 203.67 34.3531 203.105 40.8466C202.682 45.036 200.706 58.4421 205.928 57.8137C215.667 56.7663 201.976 22.4133 212.703 18.6428C219.337 16.1292 221.313 26.1837 221.595 33.5152C221.736 37.0762 219.901 50.4822 222.442 52.5769C227.382 56.7663 225.124 37.914 225.265 34.9815C225.547 26.6027 226.958 14.8724 234.298 14.4534C240.932 14.0345 238.814 24.089 238.109 30.1637C237.544 34.772 239.944 48.1781 243.472 39.3803C245.025 35.4004 243.049 30.7921 243.049 26.8121C243.049 23.2512 243.613 20.1091 244.884 17.1765C246.295 13.825 248.977 9.84508 252.082 11.1019C255.61 12.3587 255.328 19.6902 257.869 21.3659C260.55 23.0417 260.127 19.4807 261.115 16.9671C262.809 12.5682 264.079 12.5682 267.325 11.9398C269.301 11.5208 272.407 8.79773 274.241 10.8924C277.488 14.4534 273.253 20.1091 274.382 24.508C275.229 27.65 277.347 28.069 278.335 25.1364C279.323 22.2038 276.782 18.0144 277.911 15.0818C279.887 9.84508 286.662 12.5682 288.073 17.1765C291.32 27.2311 283.416 42.3129 287.791 51.3201C292.025 59.9084 293.296 45.455 293.155 41.2656C292.59 32.2584 290.191 22.6227 293.155 13.825C294.989 8.58826 301.482 1.88523 304.305 8.79773C307.128 15.5008 302.47 29.3258 303.176 36.8667C303.881 46.0834 308.116 43.7792 306.987 35.1909C306.422 31.211 303.599 14.2439 307.833 11.9398C313.056 9.0072 311.785 27.0216 317.008 12.7777C320.113 4.1894 323.924 6.28409 324.347 15.2913C324.488 18.4333 323.5 21.7849 323.783 24.9269C324.065 28.9068 326.323 32.6773 328.44 27.65C329.852 24.2985 324.771 5.86516 332.534 12.3587C336.203 15.5008 334.792 25.9743 339.308 18.0144C341.143 14.8724 341.708 10.4735 344.954 10.264C348.059 10.0546 350.6 15.0818 351.729 18.8523C353.564 24.9269 349.612 36.4477 352.999 40.4277C358.927 47.3402 357.234 28.9068 356.81 25.9743C355.963 17.8049 358.222 10.8924 364.573 15.5008C370.36 19.8996 370.642 31.6299 370.36 39.7993C370.36 41.475 369.513 59.6989 373.888 50.6917C375.582 47.1307 373.747 34.5625 374.03 30.5826C374.453 24.508 375.723 19.0618 380.099 17.5955C386.45 15.5008 390.967 20.7375 390.543 29.7447C390.261 37.0762 388.003 45.8739 389.838 52.9959C391.249 58.6515 394.919 58.861 396.895 53.4148C399.153 46.9212 396.895 36.0288 396.33 29.1163C395.766 20.3186 396.048 14.4534 398.871 6.49356C398.871 6.49356 398.73 6.70303 398.73 6.9125C398.447 7.75038 398.306 8.37879 398.165 8.58826V8.79773C398.024 9.21667 398.024 9.21667 398.165 8.79773V8.58826L398.73 6.9125C398.73 6.70303 398.871 6.70303 398.871 6.49356C399.153 5.65568 399.577 4.81781 400 3.97993V0H0Z" fill="#003A70"/>
</svg>
